# xmcd CD database file
#
# Track frame offsets:
#	150
#	17305
#	32282
#	54291
#	67568
#	86838
#	105857
#	121354
#	129545
#	140607
#	156985
#	178955
#
# Disc length: 2577 seconds
#
# Revision: 0
# Processed by: cddbd v1.5.2PL0 Copyright (c) Steve Scherf et al.
# Submitted via: CDex 1.51
#
DISCID=8e0a0f0c
DTITLE=Khaban' - Un autre émoi
DYEAR=2006
DGENRE=Jazz
TTITLE0=J'ai rêvé
TTITLE1=Mes néons
TTITLE2=Tu te moques
TTITLE3=Rêvons
TTITLE4=Tout contre tout
TTITLE5=Ici l'ombre
TTITLE6=Eloignez-moi de moi
TTITLE7=Intro
TTITLE8=Au mage
TTITLE9=Calcul Mental
TTITLE10=Kenavo Quehello
TTITLE11=Sur la Clairière
EXTD=YEAR: 2006
EXTT0=
EXTT1=
EXTT2=
EXTT3=
EXTT4=
EXTT5=
EXTT6=
EXTT7=
EXTT8=
EXTT9=
EXTT10=
EXTT11=
PLAYORDER=
